<?xml version="1.0" encoding="UTF-8" standalone="no"?>
<svg
   xmlns:dc="http://purl.org/dc/elements/1.1/"
   xmlns:cc="http://creativecommons.org/ns#"
   xmlns:rdf="http://www.w3.org/1999/02/22-rdf-syntax-ns#"
   xmlns:svg="http://www.w3.org/2000/svg"
   xmlns="http://www.w3.org/2000/svg"
   width="1600"
   height="800"
   viewBox="0 0 1600 800.00001"
   version="1.1"
   id="svg8">
  <defs
     id="defs2" />
  <metadata
     id="metadata5">
    <rdf:RDF>
      <cc:Work
         rdf:about="">
        <dc:format>image/svg+xml</dc:format>
        <dc:type
           rdf:resource="http://purl.org/dc/dcmitype/StillImage" />
        <dc:title></dc:title>
      </cc:Work>
    </rdf:RDF>
  </metadata>
  <rect
     ry="2.6458333"
     rx="2.6458333"
     y="-1683.6697"
     x="37.041668"
     height="34.773811"
     width="153.45833"
     id="rect4747"
     style="opacity:1;fill:#000000;fill-opacity:1;stroke:#ff0000;stroke-width:0.52916664;stroke-linecap:round;stroke-linejoin:miter;stroke-miterlimit:3;stroke-dasharray:none;stroke-dashoffset:0;stroke-opacity:0.98832685;paint-order:normal" />
  <rect
     y="-2.9687501e-05"
     x="0"
     height="800"
     width="1600"
     id="rect4797"
     style="opacity:1;fill:#1e1e1e;fill-opacity:1;stroke:none;stroke-width:10.03751945;stroke-linecap:round;stroke-linejoin:miter;stroke-miterlimit:3;stroke-dasharray:30.11255678, 30.11255678;stroke-dashoffset:0;stroke-opacity:0.98832685;paint-order:normal" />
  <path
     id="path4"
     d="M 756.7949,273.3844 682.4359,331.333 650,315.1792 V 164.1535 l 32.3078,-16.282 73.8461,58.0769 116.923,-117.0512 76.92309,30.641 v 239.6153 l -76.53849,31.1539 z m 113.9743,20.3845 V 185.4356 l -69.9999,54.2308 z M 685,274.2818 721.7949,240.8203 685,204.1536 Z"
     class="st0"
     style="fill:#0179cb;fill-opacity:1;stroke-width:1.28205121" />
  <path
     id="path4793"
     d="m 392.15272,636.74039 103.7114,1.11021 194.01839,-0.66904 20.58442,0.19914"
     style="opacity:1;fill:none;fill-opacity:1;stroke:#ff0000;stroke-width:14;stroke-linecap:round;stroke-linejoin:miter;stroke-miterlimit:3;stroke-dasharray:42, 42;stroke-dashoffset:0;stroke-opacity:0.98832685;paint-order:normal" />
  <circle
     r="43.749996"
     cy="578.78735"
     cx="276.38504"
     id="path4774"
     style="opacity:1;fill:#ffffff;fill-opacity:1;stroke:none;stroke-width:1.5960995;stroke-linecap:round;stroke-linejoin:miter;stroke-miterlimit:3;stroke-dasharray:none;stroke-dashoffset:0;stroke-opacity:0.98832685;paint-order:normal" />
  <path
     style="fill:#ec0000;fill-opacity:1;stroke-width:5"
     id="path4-2"
     d="M 279.99999,527.7775 C 252.4,527.7775 230,550.1775 230,577.7776 c 0,27.5999 22.4,49.9999 49.99999,49.9999 27.60001,0 50.00001,-22.4 50.00001,-49.9999 0,-27.6001 -22.4,-50.0001 -50.00001,-50.0001 z M 285,602.7776 h -10 v -10 h 10 z m 0,-20.0001 h -10 v -29.9999 h 10 z" />
  <rect
     ry="3.6060879"
     rx="4.0520587"
     y="532.71777"
     x="391.04709"
     height="88.606728"
     width="294.06357"
     id="rect4749-7-3"
     style="opacity:1;fill:#e0dd49;fill-opacity:1;stroke:none;stroke-width:0.76451492;stroke-linecap:round;stroke-linejoin:miter;stroke-miterlimit:3;stroke-dasharray:none;stroke-dashoffset:0;stroke-opacity:0.98832685;paint-order:normal" />
  <rect
     ry="3.6060879"
     rx="1.5261991"
     y="534.6333"
     x="1239.2416"
     height="88.606728"
     width="110.75841"
     id="rect4749-7-5-6"
     style="opacity:1;fill:#ffffff;fill-opacity:1;stroke:none;stroke-width:0.46919534;stroke-linecap:round;stroke-linejoin:miter;stroke-miterlimit:3;stroke-dasharray:none;stroke-dashoffset:0;stroke-opacity:0.98832685;paint-order:normal" />
  <rect
     ry="3.6060879"
     rx="6.1047969"
     y="533.01172"
     x="738.23083"
     height="88.606728"
     width="443.03363"
     id="rect4749-7-5-5-7"
     style="opacity:1;fill:#3b96db;fill-opacity:1;stroke:none;stroke-width:0.93839067;stroke-linecap:round;stroke-linejoin:miter;stroke-miterlimit:3;stroke-dasharray:none;stroke-dashoffset:0;stroke-opacity:0.98832685;paint-order:normal" />
</svg>
